<?xml version="1.0" standalone="no"?>
<!DOCTYPE svg PUBLIC "-//W3C//DTD SVG 20010904//EN"
 "http://www.w3.org/TR/2001/REC-SVG-20010904/DTD/svg10.dtd">
<svg version="1.0" xmlns="http://www.w3.org/2000/svg"
 width="152.000000pt" height="152.000000pt" viewBox="0 0 152.000000 152.000000"
 preserveAspectRatio="xMidYMid meet">
<metadata>
Created by potrace 1.14, written by Peter Selinger 2001-2017
</metadata>
<g transform="translate(0.000000,152.000000) scale(0.100000,-0.100000)"
fill="#000000" stroke="none">
<path d="M505 1248 c-2 -7 -6 -29 -7 -48 l-3 -34 -57 -3 c-87 -3 -132 -33
-163 -106 -12 -30 -15 -90 -15 -349 0 -291 1 -314 20 -352 11 -23 36 -52 57
-66 l37 -25 365 -3 c248 -2 378 0 404 8 47 14 94 61 108 109 7 23 9 150 7 357
l-3 321 -28 36 c-37 49 -76 68 -148 70 l-59 2 0 43 c0 30 -5 44 -16 49 -17 6
-35 -13 -33 -37 5 -60 19 -56 -211 -56 -181 0 -210 3 -211 16 -1 15 -4 42 -7
68 -1 6 -9 12 -17 12 -9 0 -18 -6 -20 -12z m-5 -175 c0 -23 4 -44 9 -47 13 -9
42 4 40 18 -1 6 -1 25 0 41 l1 30 210 1 210 0 1 -25 c1 -14 1 -34 0 -43 -2
-17 2 -20 32 -22 7 -1 14 17 17 44 l5 45 53 -1 c95 -2 132 -47 132 -161 l0
-73 -451 0 -451 0 3 84 c3 66 8 89 24 106 28 31 68 47 121 46 l44 0 0 -43z
m710 -458 c0 -174 -3 -222 -15 -245 -30 -59 -39 -60 -435 -60 -359 0 -383 2
-416 34 -30 31 -34 59 -34 270 l0 216 450 0 450 0 0 -215z"/>
<path d="M470 722 c-30 -24 -21 -69 15 -78 30 -7 43 1 56 34 9 22 7 30 -11 44
-28 22 -32 22 -60 0z"/>
<path d="M730 722 c-31 -25 -21 -67 16 -76 52 -14 82 49 39 80 -24 18 -28 18
-55 -4z"/>
<path d="M990 720 c-11 -11 -20 -24 -20 -30 0 -15 38 -50 54 -50 20 0 46 28
46 50 0 17 -34 50 -52 50 -5 0 -17 -9 -28 -20z"/>
<path d="M459 479 c-16 -31 3 -69 35 -69 27 0 56 23 56 45 0 42 -71 61 -91 24z"/>
<path d="M719 479 c-18 -34 3 -69 40 -69 45 0 66 44 35 74 -22 23 -61 20 -75
-5z"/>
<path d="M987 485 c-16 -15 -16 -26 -2 -57 11 -28 63 -24 76 6 23 50 -36 90
-74 51z"/>
</g>
</svg>
